<svg width="48" height="48" viewBox="0 0 48 48" fill="none" xmlns="http://www.w3.org/2000/svg">
<mask id="mask0_414_35" style="mask-type:alpha" maskUnits="userSpaceOnUse" x="0" y="0" width="48" height="48">
<rect width="48" height="48" fill="#D9D9D9"/>
</mask>
<g mask="url(#mask0_414_35)">
<path d="M16.5 15C16.5 14.1716 17.1716 13.5 18 13.5H32C32.8284 13.5 33.5 14.1716 33.5 15C33.5 15.8284 32.8284 16.5 32 16.5H18C17.1716 16.5 16.5 15.8284 16.5 15Z" fill="#D7D2FF" fill-opacity="0.8"/>
<path d="M18 19.5C17.1716 19.5 16.5 20.1716 16.5 21C16.5 21.8284 17.1716 22.5 18 22.5H28C28.8284 22.5 29.5 21.8284 29.5 21C29.5 20.1716 28.8284 19.5 28 19.5H18Z" fill="#D7D2FF" fill-opacity="0.8"/>
<path fill-rule="evenodd" clip-rule="evenodd" d="M17 5.5C11.7533 5.5 7.5 9.75329 7.5 15V35C7.5 39.1421 10.8579 42.5 15 42.5H37C38.933 42.5 40.5 40.933 40.5 39V9C40.5 7.067 38.933 5.5 37 5.5H17ZM37.5 27.5V9C37.5 8.72386 37.2761 8.5 37 8.5H17C13.4101 8.5 10.5 11.4101 10.5 15V28.9995C11.7535 28.0579 13.3116 27.5 15 27.5H37.5ZM37.5 30.5H15C12.5147 30.5 10.5 32.5147 10.5 35C10.5 37.4853 12.5147 39.5 15 39.5H37C37.2761 39.5 37.5 39.2761 37.5 39V30.5Z" fill="#D7D2FF" fill-opacity="0.8"/>
</g>
</svg>
