<svg width="48" height="48" viewBox="0 0 48 48" fill="none" xmlns="http://www.w3.org/2000/svg">
<path d="M48 24C48 37.2548 37.2548 48 24 48C10.7452 48 0 37.2548 0 24C0 10.7452 10.7452 0 24 0C37.2548 0 48 10.7452 48 24Z" fill="white"/>
<path d="M34.979 33.6959C22.5967 39.5888 14.9121 34.6584 9.99298 31.6637C9.68858 31.475 9.17122 31.7079 9.6201 32.2235C11.2589 34.2105 16.6297 39 23.64 39C30.6552 39 34.8286 35.1722 35.3507 34.5045C35.8692 33.8424 35.5031 33.4772 34.979 33.6959ZM38.4565 31.7754C38.124 31.3424 36.4346 31.2617 35.3714 31.3923C34.3066 31.5191 32.7082 32.1699 32.8472 32.5607C32.9185 32.707 33.064 32.6414 33.7955 32.5756C34.5291 32.5024 36.5839 32.2431 37.0121 32.8028C37.4423 33.3664 36.3567 36.0513 36.1585 36.4843C35.9669 36.9173 36.2316 37.0289 36.5915 36.7405C36.9463 36.4523 37.5888 35.7057 38.0199 34.6492C38.4481 33.5869 38.7093 32.1051 38.4565 31.7754Z" fill="#232F3F"/>
<path fill-rule="evenodd" clip-rule="evenodd" d="M26.6533 21.6714C26.6533 23.2176 26.6923 24.5071 25.9108 25.8802C25.28 26.9967 24.2808 27.6833 23.1644 27.6833C21.6405 27.6833 20.7529 26.5222 20.7529 24.8085C20.7529 21.4257 23.7839 20.8117 26.6533 20.8117V21.6714ZM30.6556 31.3452C30.3932 31.5796 30.0136 31.5964 29.7178 31.44C28.4004 30.346 28.1659 29.838 27.4403 28.7941C25.2633 31.0158 23.7226 31.6801 20.8981 31.6801C17.56 31.6801 14.9587 29.6202 14.9587 25.4951C14.9587 22.2743 16.706 20.0805 19.1899 19.0088C21.3447 18.0597 24.3534 17.8923 26.6533 17.63V17.1164C26.6533 16.173 26.7257 15.0566 26.1732 14.2417C25.6875 13.5104 24.7609 13.2089 23.9458 13.2089C22.4332 13.2089 21.0823 13.9848 20.7529 15.5924C20.6859 15.9498 20.4236 16.3015 20.0664 16.3182L16.2147 15.9052C15.891 15.8325 15.5337 15.5702 15.623 15.0733C16.5106 10.4068 20.7249 9 24.4984 9C26.4298 9 28.9529 9.5136 30.4769 10.9762C32.4083 12.7791 32.224 15.185 32.224 17.803V23.9879C32.224 25.8468 32.9944 26.6617 33.72 27.6666C33.9767 28.0238 34.0326 28.4537 33.7088 28.7215C32.8994 29.3969 31.4592 30.653 30.6666 31.3564L30.6556 31.3452Z" fill="black"/>
<path d="M34.979 33.6959C22.5967 39.5888 14.9121 34.6584 9.99298 31.6637C9.68858 31.475 9.17122 31.7079 9.6201 32.2235C11.2589 34.2105 16.6297 39 23.64 39C30.6552 39 34.8286 35.1722 35.3507 34.5045C35.8692 33.8424 35.5031 33.4772 34.979 33.6959ZM38.4565 31.7754C38.124 31.3424 36.4346 31.2617 35.3714 31.3923C34.3066 31.5191 32.7082 32.1699 32.8472 32.5607C32.9185 32.707 33.064 32.6414 33.7955 32.5756C34.5291 32.5024 36.5839 32.2431 37.0121 32.8028C37.4423 33.3664 36.3567 36.0513 36.1585 36.4843C35.9669 36.9173 36.2316 37.0289 36.5915 36.7405C36.9463 36.4523 37.5888 35.7057 38.0199 34.6492C38.4481 33.5869 38.7093 32.1051 38.4565 31.7754Z" fill="#232F3F"/>
<path fill-rule="evenodd" clip-rule="evenodd" d="M26.6533 21.6714C26.6533 23.2176 26.6923 24.5071 25.9108 25.8802C25.28 26.9967 24.2808 27.6833 23.1644 27.6833C21.6405 27.6833 20.7529 26.5222 20.7529 24.8085C20.7529 21.4257 23.7839 20.8117 26.6533 20.8117V21.6714ZM30.6556 31.3452C30.3932 31.5796 30.0136 31.5964 29.7178 31.44C28.4004 30.346 28.1659 29.838 27.4403 28.7941C25.2633 31.0158 23.7226 31.6801 20.8981 31.6801C17.56 31.6801 14.9587 29.6202 14.9587 25.4951C14.9587 22.2743 16.706 20.0805 19.1899 19.0088C21.3447 18.0597 24.3534 17.8923 26.6533 17.63V17.1164C26.6533 16.173 26.7257 15.0566 26.1732 14.2417C25.6875 13.5104 24.7609 13.2089 23.9458 13.2089C22.4332 13.2089 21.0823 13.9848 20.7529 15.5924C20.6859 15.9498 20.4236 16.3015 20.0664 16.3182L16.2147 15.9052C15.891 15.8325 15.5337 15.5702 15.623 15.0733C16.5106 10.4068 20.7249 9 24.4984 9C26.4298 9 28.9529 9.5136 30.4769 10.9762C32.4083 12.7791 32.224 15.185 32.224 17.803V23.9879C32.224 25.8468 32.9944 26.6617 33.72 27.6666C33.9767 28.0238 34.0326 28.4537 33.7088 28.7215C32.8994 29.3969 31.4592 30.653 30.6666 31.3564L30.6556 31.3452Z" fill="#232F3F"/>
</svg>
