<svg width="48" height="48" viewBox="0 0 48 48" fill="none" xmlns="http://www.w3.org/2000/svg">
<path d="M48 24C48 37.2548 37.2548 48 24 48C10.7452 48 0 37.2548 0 24C0 10.7452 10.7452 0 24 0C37.2548 0 48 10.7452 48 24Z" fill="url(#paint0_linear_241_2)"/>
<path d="M6.34305 40.2554C6.94031 40.2126 8.25991 40.1393 9.84276 40.0659L9.94646 40.0611C12.1904 39.9571 14.7249 39.8396 15.598 39.7804L17.2209 39.6902L17.1307 38.7586L15.2524 38.458L13.374 38.1425L14.4259 38.0373C15.012 37.9772 15.7633 37.9321 16.1089 37.9321C16.8603 37.9321 16.9504 37.8119 16.74 37.2108C16.7028 37.1052 16.686 37.0253 16.6466 36.9589C16.4953 36.7038 16.0094 36.6472 12.7429 36.0988C11.5558 35.9185 10.5941 35.7232 10.5941 35.6781C10.5941 35.4527 17.9722 34.9267 21.1429 34.9267H24.569L24.6291 34.5811C24.6591 34.4008 24.7944 33.6044 24.9296 32.808C25.5758 28.8409 27.3189 25.535 29.7382 23.7017C31.6766 22.2291 34.4716 21.2223 37.3567 20.9669C39.0097 20.8166 39.8061 20.8917 40.4222 21.2374C41.2937 21.7332 42 23.6266 42 25.505C42 26.4967 41.7596 26.6169 39.4455 26.7071C37.2365 26.7973 36.2147 27.1128 35.3281 27.9693C34.1861 29.0813 33.6301 30.3135 33.1492 32.9131C32.9689 33.8148 32.8337 34.6412 32.8337 34.7314C32.8337 34.8817 33.3446 34.9267 34.8623 34.9267C36.7106 34.9267 36.921 34.9568 37.1914 35.2273C38.1231 36.1589 37.9428 38.3528 36.8158 39.8255C36.1696 40.667 35.794 40.7872 33.6151 40.7872H31.6917L31.2709 43.1464C31.135 43.9346 30.9718 44.8375 30.8373 45.5818C30.7487 46.072 30.6725 46.4933 30.6248 46.7678L30.5657 47.0909C28.6138 47.6448 26.5607 47.9579 24.4404 47.996C22.5304 47.9837 22.315 47.9344 22.315 47.7446C22.315 47.5192 23.2767 41.8991 23.442 41.1178L23.5171 40.7872H20.4066C17.9943 40.7872 8.6111 40.4674 6.406 40.3235C6.38498 40.3008 6.36399 40.2781 6.34305 40.2554Z" fill="#002C51"/>
<defs>
<linearGradient id="paint0_linear_241_2" x1="0" y1="0" x2="24" y2="48" gradientUnits="userSpaceOnUse">
<stop stop-color="#F7E500"/>
<stop offset="1" stop-color="#EE9121"/>
</linearGradient>
</defs>
</svg>
