<svg width="48" height="48" viewBox="0 0 48 48" fill="none" xmlns="http://www.w3.org/2000/svg">
<path d="M48 24C48 37.2548 37.2548 48 24 48C10.7452 48 0 37.2548 0 24C0 10.7452 10.7452 0 24 0C37.2548 0 48 10.7452 48 24Z" fill="url(#paint0_radial_27_15)"/>
<path d="M48 24C48 37.2548 37.2548 48 24 48C10.7452 48 0 37.2548 0 24C0 10.7452 10.7452 0 24 0C37.2548 0 48 10.7452 48 24Z" fill="url(#paint1_radial_27_15)"/>
<g filter="url(#filter0_d_27_15)">
<path d="M24 32.4C19.3692 32.4 15.6 28.632 15.6 24C15.6 19.368 19.3692 15.6 24 15.6C28.6308 15.6 32.4 19.368 32.4 24C32.4 28.632 28.6308 32.4 24 32.4ZM24 18C20.6916 18 18 20.6916 18 24C18 27.3084 20.6916 30 24 30C27.3084 30 30 27.3084 30 24C30 20.6916 27.3084 18 24 18Z" fill="white"/>
<path d="M33 16.8C33.9941 16.8 34.8 15.9941 34.8 15C34.8 14.0059 33.9941 13.2 33 13.2C32.0059 13.2 31.2 14.0059 31.2 15C31.2 15.9941 32.0059 16.8 33 16.8Z" fill="white"/>
<path d="M31.2 39.6H16.8C12.1692 39.6 8.39999 35.832 8.39999 31.2V16.8C8.39999 12.168 12.1692 8.4 16.8 8.4H31.2C35.8308 8.4 39.6 12.168 39.6 16.8V31.2C39.6 35.832 35.8308 39.6 31.2 39.6ZM16.8 10.8C13.4916 10.8 10.8 13.4916 10.8 16.8V31.2C10.8 34.5084 13.4916 37.2 16.8 37.2H31.2C34.5084 37.2 37.2 34.5084 37.2 31.2V16.8C37.2 13.4916 34.5084 10.8 31.2 10.8H16.8Z" fill="white"/>
</g>
<defs>
<filter id="filter0_d_27_15" x="7.39999" y="7.4" width="33.2" height="33.2" filterUnits="userSpaceOnUse" color-interpolation-filters="sRGB">
<feFlood flood-opacity="0" result="BackgroundImageFix"/>
<feColorMatrix in="SourceAlpha" type="matrix" values="0 0 0 0 0 0 0 0 0 0 0 0 0 0 0 0 0 0 127 0" result="hardAlpha"/>
<feOffset/>
<feGaussianBlur stdDeviation="0.5"/>
<feComposite in2="hardAlpha" operator="out"/>
<feColorMatrix type="matrix" values="0 0 0 0 0 0 0 0 0 0 0 0 0 0 0 0 0 0 0.25 0"/>
<feBlend mode="normal" in2="BackgroundImageFix" result="effect1_dropShadow_27_15"/>
<feBlend mode="normal" in="SourceGraphic" in2="effect1_dropShadow_27_15" result="shape"/>
</filter>
<radialGradient id="paint0_radial_27_15" cx="0" cy="0" r="1" gradientUnits="userSpaceOnUse" gradientTransform="translate(17.8439 48.0346) scale(59.8337)">
<stop stop-color="#FFDD55"/>
<stop offset="0.328" stop-color="#FF543F"/>
<stop offset="0.348" stop-color="#FC5245"/>
<stop offset="0.504" stop-color="#E64771"/>
<stop offset="0.643" stop-color="#D53E91"/>
<stop offset="0.761" stop-color="#CC39A4"/>
<stop offset="0.841" stop-color="#C837AB"/>
</radialGradient>
<radialGradient id="paint1_radial_27_15" cx="0" cy="0" r="1" gradientUnits="userSpaceOnUse" gradientTransform="translate(7.72393 -0.599276) scale(39.7297 26.4719)">
<stop stop-color="#4168C9"/>
<stop offset="0.999" stop-color="#4168C9" stop-opacity="0"/>
</radialGradient>
</defs>
</svg>
