<svg width="48" height="48" viewBox="0 0 48 48" fill="none" xmlns="http://www.w3.org/2000/svg">
<g clip-path="url(#clip0_10_38)">
<path d="M24 0C10.7076 0 0 10.7076 0 24C0 37.2924 10.7076 48 24 48C37.2912 48 48 37.2924 48 24C48 10.7076 37.2912 0 24 0Z" fill="url(#paint0_linear_10_38)"/>
<path d="M33.2952 35.898C32.9448 35.898 32.5932 35.724 32.2428 35.5476C28.9104 33.6192 24.876 32.5668 20.4924 32.5668C18.036 32.5668 15.5808 32.916 13.3008 33.4428C12.9504 33.4428 12.4236 33.618 12.2484 33.618C11.3712 33.618 10.8456 32.9148 10.8456 32.214C10.8456 31.338 11.3712 30.81 12.0732 30.6372C14.8788 29.934 17.6856 29.5848 20.6664 29.5848C25.578 29.5848 30.138 30.81 33.996 33.0936C34.5216 33.4428 34.8732 33.7944 34.8732 34.6704C34.698 35.3736 33.996 35.898 33.2952 35.898ZM35.7504 29.934C35.2248 29.934 34.8744 29.7612 34.5228 29.5848C30.8412 27.3048 25.7532 25.8996 19.9668 25.8996C17.16 25.8996 14.5296 26.2512 12.6 26.7792C12.0732 26.952 11.898 26.952 11.5476 26.952C10.4952 26.952 9.7932 26.076 9.7932 25.1988C9.7932 24.1464 10.32 23.6196 11.196 23.2704C13.8264 22.5696 16.458 22.0428 20.1408 22.0428C26.1048 22.0428 31.8924 23.4468 36.4524 26.2512C37.1532 26.6004 37.5048 27.3036 37.5048 28.0044C37.5048 29.058 36.8028 29.934 35.7504 29.934ZM38.5572 22.9212C38.0316 22.9212 37.8552 22.746 37.3296 22.572C33.12 20.1156 26.8068 18.7116 20.6676 18.7116C17.5104 18.7116 14.3532 19.0632 11.5476 19.764C11.196 19.764 10.8456 19.9392 10.32 19.9392C9.0924 20.1144 8.2152 19.0632 8.2152 17.8344C8.2152 16.6068 8.9172 15.906 9.7932 15.7296C13.1256 14.6772 16.6332 14.3256 20.6676 14.3256C27.3324 14.3256 34.3476 15.7296 39.6096 18.7104C40.3104 19.062 40.836 19.7628 40.836 20.8152C40.662 22.0428 39.7836 22.9212 38.5572 22.9212Z" fill="white"/>
</g>
<defs>
<linearGradient id="paint0_linear_10_38" x1="24" y1="0" x2="24" y2="48" gradientUnits="userSpaceOnUse">
<stop stop-color="#4CAF50"/>
<stop offset="1" stop-color="#4CAF50"/>
</linearGradient>
<clipPath id="clip0_10_38">
<rect width="48" height="48" fill="white"/>
</clipPath>
</defs>
</svg>
